<svg width="23" height="23" viewBox="0 0 23 23" fill="none" xmlns="http://www.w3.org/2000/svg">
<path fill-rule="evenodd" clip-rule="evenodd" d="M10.2305 2.30722e-08C8.59897 0.00013901 6.99117 0.390418 5.5412 1.13827C4.09124 1.88613 2.84114 2.96988 1.89522 4.2991C0.949294 5.62833 0.33497 7.16448 0.103499 8.7794C-0.127971 10.3943 0.0301238 12.0412 0.564595 13.5826C1.09907 15.124 1.99441 16.5152 3.17594 17.6402C4.35747 18.7652 5.79091 19.5914 7.35667 20.0497C8.92243 20.5081 10.5751 20.5854 12.1768 20.2752C13.7786 19.965 15.2829 19.2762 16.5642 18.2664L20.9601 22.6621C21.1871 22.8814 21.4912 23.0027 21.8068 23C22.1224 22.9972 22.4243 22.8706 22.6474 22.6475C22.8706 22.4243 22.9972 22.1224 23 21.8068C23.0027 21.4912 22.8814 21.1872 22.6621 20.9602L18.2663 16.5645C19.4555 15.0559 20.196 13.2429 20.4029 11.3331C20.6099 9.42335 20.275 7.49388 19.4365 5.76555C18.598 4.03721 17.2899 2.57983 15.6618 1.5602C14.0338 0.540562 12.1515 -0.000128962 10.2305 2.30722e-08ZM2.4065 10.2309C2.4065 8.15597 3.23081 6.166 4.69808 4.69877C6.16536 3.23155 8.15541 2.40728 10.2305 2.40728C12.3055 2.40728 14.2955 3.23155 15.7628 4.69877C17.2301 6.166 18.0544 8.15597 18.0544 10.2309C18.0544 12.3059 17.2301 14.2959 15.7628 15.7631C14.2955 17.2303 12.3055 18.0546 10.2305 18.0546C8.15541 18.0546 6.16536 17.2303 4.69808 15.7631C3.23081 14.2959 2.4065 12.3059 2.4065 10.2309Z" fill="black"/>
</svg>
