<svg width="16" height="17" viewBox="0 0 16 17" fill="none" xmlns="http://www.w3.org/2000/svg">
<path d="M0.630813 11.0062C0.15922 11.6469 -0.0602376 12.4386 0.0142394 13.2307C0.0887163 14.0227 0.451924 14.7597 1.03468 15.3012C1.61744 15.8427 2.37903 16.151 3.1744 16.1673C3.96976 16.1835 4.74332 15.9067 5.34774 15.3894C4.22089 15.1955 3.17485 14.6778 2.33726 13.8995C1.49966 13.1211 0.906728 12.1158 0.630813 11.0062Z" fill="#DCDCDC"/>
<path d="M2.74405 6.33463C1.91544 7.25123 1.46762 8.44935 1.4919 9.68474C1.51619 10.9201 2.01074 12.0997 2.87473 12.9831C3.73872 13.8664 4.90709 14.3869 6.14163 14.4386C7.37617 14.4902 8.58392 14.069 9.51863 13.2609C7.72488 13.1712 6.03096 12.4082 4.77513 11.1243C3.5193 9.84033 2.794 8.12993 2.74405 6.33463Z" fill="#DCDCDC"/>
<path d="M9.87253 0C11.0838 3.71061e-06 12.2679 0.358994 13.2752 1.03162C14.2825 1.70424 15.0679 2.66033 15.5321 3.77909C15.9963 4.89786 16.1185 6.1291 15.8833 7.3173C15.6481 8.50549 15.0661 9.59733 14.2106 10.4549C13.3552 11.3124 12.2648 11.8972 11.0772 12.1353C9.8896 12.3735 8.65805 12.2543 7.53815 11.7928C6.41824 11.3314 5.46022 10.5484 4.7851 9.54272C4.10999 8.53706 3.74807 7.35387 3.74507 6.14263C3.74308 5.33668 3.9001 4.53826 4.20714 3.79309C4.51418 3.04792 4.96521 2.37064 5.53439 1.80005C6.10358 1.22946 6.77974 0.776753 7.52415 0.467872C8.26856 0.15899 9.06659 -2.46893e-06 9.87253 0Z" fill="#DCDCDC"/>
</svg>
