<svg width="16" height="16" viewBox="0 0 16 16" fill="none" xmlns="http://www.w3.org/2000/svg">
<path fill-rule="evenodd" clip-rule="evenodd" d="M2.66667 0.444444C2.66667 0.32657 2.71349 0.213524 2.79684 0.130175C2.88019 0.0468253 2.99324 0 3.11111 0H12.8889C13.0068 0 13.1198 0.0468253 13.2032 0.130175C13.2865 0.213524 13.3333 0.32657 13.3333 0.444444V0.888889H15.5556C15.6734 0.888889 15.7865 0.935714 15.8698 1.01906C15.9532 1.10241 16 1.21546 16 1.33333V4C16 4.58937 15.7659 5.1546 15.3491 5.57135C14.9324 5.9881 14.3671 6.22222 13.7778 6.22222H13.0298C12.7121 7.11872 12.1608 7.91412 11.4328 8.52622C10.7048 9.13832 9.82661 9.54492 8.88889 9.704V12.4444H11.5556C11.6734 12.4444 11.7865 12.4913 11.8698 12.5746C11.9532 12.658 12 12.771 12 12.8889V15.5556C12 15.6734 11.9532 15.7865 11.8698 15.8698C11.7865 15.9532 11.6734 16 11.5556 16H4.44444C4.32657 16 4.21352 15.9532 4.13018 15.8698C4.04683 15.7865 4 15.6734 4 15.5556V12.8889C4 12.771 4.04683 12.658 4.13018 12.5746C4.21352 12.4913 4.32657 12.4444 4.44444 12.4444H7.11111V9.704C6.17339 9.54492 5.29517 9.13832 4.56719 8.52622C3.83921 7.91412 3.2879 7.11872 2.97022 6.22222H2.22222C1.63285 6.22222 1.06762 5.9881 0.650874 5.57135C0.234126 5.1546 0 4.58937 0 4V1.33333C0 1.21546 0.0468253 1.10241 0.130175 1.01906C0.213524 0.935714 0.32657 0.888889 0.444444 0.888889H2.66667V0.444444ZM13.3333 4.44444V1.77778H15.1111V4C15.1111 4.35362 14.9706 4.69276 14.7206 4.94281C14.4705 5.19286 14.1314 5.33333 13.7778 5.33333H13.3333V4.44444ZM2.66667 1.77778H0.888889V4C0.888889 4.35362 1.02936 4.69276 1.27941 4.94281C1.52946 5.19286 1.8686 5.33333 2.22222 5.33333H2.66667V1.77778Z" fill="#DCDCDC"/>
</svg>
