<svg width="16" height="18" viewBox="0 0 16 18" fill="none" xmlns="http://www.w3.org/2000/svg">
<path d="M8 9.77778C10.1298 9.77778 12.0667 10.3947 13.4916 11.2631C14.2027 11.6987 14.8107 12.2098 15.2498 12.7653C15.6818 13.3129 16 13.9671 16 14.6667C16 15.4178 15.6347 16.0098 15.1084 16.432C14.6107 16.832 13.9538 17.0969 13.256 17.2818C11.8533 17.6524 9.98133 17.7778 8 17.7778C6.01867 17.7778 4.14667 17.6533 2.744 17.2818C2.04622 17.0969 1.38933 16.832 0.891555 16.432C0.364444 16.0089 0 15.4178 0 14.6667C0 13.9671 0.318222 13.3129 0.750222 12.7653C1.18933 12.2098 1.79644 11.6987 2.50844 11.2631C3.93333 10.3947 5.87111 9.77778 8 9.77778ZM8 0C9.17874 0 10.3092 0.468253 11.1427 1.30175C11.9762 2.13524 12.4444 3.2657 12.4444 4.44444C12.4444 5.62318 11.9762 6.75365 11.1427 7.58714C10.3092 8.42064 9.17874 8.88889 8 8.88889C6.82126 8.88889 5.6908 8.42064 4.8573 7.58714C4.02381 6.75365 3.55556 5.62318 3.55556 4.44444C3.55556 3.2657 4.02381 2.13524 4.8573 1.30175C5.6908 0.468253 6.82126 0 8 0Z" fill="#DCDCDC"/>
</svg>
