<svg width="16" height="16" viewBox="0 0 16 16" fill="none" xmlns="http://www.w3.org/2000/svg">
<path d="M6.11467 5.77778C6.56267 5.23556 7.24089 4.88889 8 4.88889C8.75911 4.88889 9.43733 5.23556 9.88533 5.77778C10.1803 6.13539 10.3675 6.5695 10.4251 7.02946C10.4827 7.48942 10.4083 7.95628 10.2106 8.37557C10.0129 8.79486 9.70008 9.1493 9.30859 9.39754C8.91711 9.64578 8.46311 9.77759 7.99956 9.77759C7.536 9.77759 7.082 9.64578 6.69052 9.39754C6.29904 9.1493 5.98621 8.79486 5.78853 8.37557C5.59084 7.95628 5.51646 7.48942 5.57405 7.02946C5.63164 6.5695 5.81883 6.13539 6.11378 5.77778H6.11467ZM11.3333 7.33333C11.3333 6.77156 11.1947 6.24178 10.9493 5.77778H14.6667C15.0203 5.77778 15.3594 5.91825 15.6095 6.1683C15.8595 6.41835 16 6.75749 16 7.11111V7.55556C16 8.96622 14.928 10.4107 13.0533 10.9191C12.8607 10.573 12.579 10.2848 12.2376 10.0841C11.8961 9.88343 11.5072 9.77767 11.1111 9.77778H10.2667C10.6036 9.46604 10.8723 9.08791 11.0559 8.66721C11.2395 8.24651 11.3339 7.79235 11.3333 7.33333ZM11.1111 10.6667C11.2863 10.6662 11.4599 10.7004 11.6219 10.7672C11.7839 10.834 11.9311 10.9322 12.055 11.0561C12.1789 11.18 12.2771 11.3272 12.3439 11.4892C12.4107 11.6512 12.4449 11.8248 12.4444 12V12.4444C12.4444 14.1964 10.7911 16 8 16C5.20889 16 3.55556 14.1964 3.55556 12.4444V12C3.55509 11.8248 3.58925 11.6512 3.65609 11.4892C3.72293 11.3272 3.82113 11.18 3.94503 11.0561C4.06894 10.9322 4.21611 10.834 4.37809 10.7672C4.54007 10.7004 4.71366 10.6662 4.88889 10.6667H11.1111ZM0 7.55556C0 8.96622 1.072 10.4107 2.94667 10.9191C3.13932 10.573 3.42096 10.2848 3.76243 10.0841C4.10391 9.88343 4.49282 9.77767 4.88889 9.77778H5.73333C5.39642 9.46604 5.1277 9.08791 4.94412 8.66721C4.76054 8.24651 4.66608 7.79235 4.66667 7.33333C4.66667 6.77156 4.80533 6.24178 5.05156 5.77778H1.33333C0.979711 5.77778 0.640573 5.91825 0.390524 6.1683C0.140476 6.41835 0 6.75749 0 7.11111V7.55556ZM6.88889 2.44444C6.88889 1.79614 6.63135 1.17438 6.17293 0.715961C5.71451 0.257539 5.09275 0 4.44444 0C3.79614 0 3.17438 0.257539 2.71596 0.715961C2.25754 1.17438 2 1.79614 2 2.44444C2 3.09275 2.25754 3.71451 2.71596 4.17293C3.17438 4.63135 3.79614 4.88889 4.44444 4.88889C5.09275 4.88889 5.71451 4.63135 6.17293 4.17293C6.63135 3.71451 6.88889 3.09275 6.88889 2.44444ZM14 2.44444C14 1.79614 13.7425 1.17438 13.284 0.715961C12.8256 0.257539 12.2039 0 11.5556 0C10.9072 0 10.2855 0.257539 9.82707 0.715961C9.36865 1.17438 9.11111 1.79614 9.11111 2.44444C9.11111 3.09275 9.36865 3.71451 9.82707 4.17293C10.2855 4.63135 10.9072 4.88889 11.5556 4.88889C12.2039 4.88889 12.8256 4.63135 13.284 4.17293C13.7425 3.71451 14 3.09275 14 2.44444Z" fill="#DCDCDC"/>
</svg>
