<svg width="16" height="12" viewBox="0 0 16 12" fill="none" xmlns="http://www.w3.org/2000/svg">
<path d="M4 11.5818C2.89697 11.5818 1.95467 11.2 1.17309 10.4364C0.39103 9.67273 0 8.73939 0 7.63636C0 6.69091 0.284848 5.84849 0.854545 5.10909C1.42424 4.3697 2.1697 3.89697 3.09091 3.69091C3.3697 2.70909 3.888 1.88485 4.64582 1.21818C5.40315 0.551515 6.27879 0.145455 7.27273 0V5.87273L6.10909 4.74546L5.09091 5.76364L8 8.67273L10.9091 5.76364L9.89091 4.74546L8.72727 5.87273V0C9.97576 0.169697 11.0153 0.730182 11.8458 1.68145C12.6759 2.63321 13.0909 3.75152 13.0909 5.03636C13.9273 5.13333 14.6213 5.49382 15.1731 6.11782C15.7244 6.7423 16 7.47273 16 8.30909C16 9.21818 15.6819 9.99103 15.0458 10.6276C14.4092 11.2638 13.6364 11.5818 12.7273 11.5818H4Z" fill="#DCDCDC"/>
</svg>
