<svg width="16" height="16" viewBox="0 0 16 16" fill="none" xmlns="http://www.w3.org/2000/svg">
<path d="M15.0914 0L12.0133 0.610922L14.1594 3.38356L15.7024 3.07027L15.0914 0ZM9.71064 1.0652L8.16767 1.37066L10.3216 4.13547L11.8567 3.83001L9.71064 1.0652ZM5.8728 1.8171L4.32983 2.13823L6.48372 4.90304L8.01886 4.59758L5.8728 1.8171ZM2.02713 2.60033L1.25956 2.74915C0.852579 2.83046 0.4945 3.06996 0.263947 3.41505C0.0333938 3.76015 -0.0507881 4.18263 0.029885 4.58974L0.335346 6.12488L4.17319 5.36514L2.02713 2.60033ZM0.335346 6.12488V13.9572C0.335346 14.3727 0.500383 14.7711 0.794153 15.0649C1.08792 15.3586 1.48636 15.5237 1.90181 15.5237H14.4335C15.3029 15.5237 16 14.8266 16 13.9572V6.12488H0.335346Z" fill="#DCDCDC"/>
</svg>
