<svg width="16" height="17" viewBox="0 0 16 17" fill="none" xmlns="http://www.w3.org/2000/svg">
<path d="M14.1167 9.02944C14.151 8.77244 14.1681 8.50686 14.1681 8.22416C14.1681 7.95002 14.151 7.67588 14.1081 7.41888L15.8472 6.06532C15.9222 6.00355 15.9734 5.91771 15.9921 5.82242C16.0108 5.72713 15.996 5.62829 15.95 5.54274L14.3052 2.69855C14.2568 2.61251 14.1794 2.54639 14.0869 2.51189C13.9944 2.47739 13.8927 2.47675 13.7997 2.51008L11.7523 3.3325C11.3239 3.00696 10.8699 2.73282 10.3644 2.52722L10.056 0.351242C10.0409 0.253178 9.99103 0.163806 9.91558 0.0993573C9.84013 0.0349082 9.74406 -0.000343962 9.64483 2.53013e-06H6.35517C6.14956 2.53013e-06 5.98679 0.145639 5.95253 0.351242L5.64412 2.52722C5.13868 2.73282 4.67607 3.01553 4.2563 3.3325L2.20882 2.51008C2.02035 2.44155 1.80618 2.51008 1.70338 2.69855L0.0671152 5.54274C-0.0356868 5.72264 -0.00141958 5.94538 0.169917 6.06532L1.90898 7.41888C1.86615 7.67588 1.83188 7.95859 1.83188 8.22416C1.83188 8.48973 1.84902 8.77244 1.89185 9.02944L0.152783 10.383C0.0778442 10.4448 0.02664 10.5306 0.00789476 10.6259C-0.0108504 10.7212 0.00402322 10.82 0.0499815 10.9056L1.69481 13.7498C1.79761 13.9382 2.01179 13.9982 2.20026 13.9382L4.24773 13.1158C4.67607 13.4414 5.13011 13.7155 5.63555 13.9211L5.94396 16.0971C5.98679 16.3027 6.14956 16.4483 6.35517 16.4483H9.64483C9.85043 16.4483 10.0218 16.3027 10.0475 16.0971L10.3559 13.9211C10.8613 13.7155 11.3239 13.4414 11.7437 13.1158L13.7912 13.9382C13.9796 14.0068 14.1938 13.9382 14.2966 13.7498L15.9415 10.9056C16.0443 10.7171 16.0014 10.5029 15.8386 10.383L14.1167 9.02944ZM8 11.3082C6.30377 11.3082 4.91594 9.92039 4.91594 8.22416C4.91594 6.52793 6.30377 5.1401 8 5.1401C9.69623 5.1401 11.0841 6.52793 11.0841 8.22416C11.0841 9.92039 9.69623 11.3082 8 11.3082Z" fill="#DCDCDC"/>
</svg>
